<?xml version="1.0" encoding="UTF-8" standalone="no"?>
<!-- Created with Inkscape (http://www.inkscape.org/) -->

<svg
   xmlns:dc="http://purl.org/dc/elements/1.1/"
   xmlns:cc="http://creativecommons.org/ns#"
   xmlns:rdf="http://www.w3.org/1999/02/22-rdf-syntax-ns#"
   xmlns:svg="http://www.w3.org/2000/svg"
   xmlns="http://www.w3.org/2000/svg"
   xmlns:xlink="http://www.w3.org/1999/xlink"
   xmlns:sodipodi="http://sodipodi.sourceforge.net/DTD/sodipodi-0.dtd"
   xmlns:inkscape="http://www.inkscape.org/namespaces/inkscape"
   width="200"
   height="175"
   id="svg3396"
   version="1.1"
   inkscape:version="0.91 r13725"
   sodipodi:docname="wraspy.svg"
   inkscape:export-filename="./wraspy.png"
   inkscape:export-xdpi="25"
   inkscape:export-ydpi="25">
  <defs
     id="defs3398">
    <linearGradient
       id="linearGradient4157"
       inkscape:collect="always">
      <stop
         id="stop4159"
         offset="0"
         style="stop-color:#5599ff;stop-opacity:1" />
      <stop
         id="stop4161"
         offset="1"
         style="stop-color:#0044aa;stop-opacity:1" />
    </linearGradient>
    <linearGradient
       inkscape:collect="always"
       id="linearGradient3002">
      <stop
         style="stop-color:#0066ff;stop-opacity:1"
         offset="0"
         id="stop3004" />
      <stop
         style="stop-color:#002255;stop-opacity:1"
         offset="1"
         id="stop3006" />
    </linearGradient>
    <linearGradient
       inkscape:collect="always"
       id="linearGradient3422">
      <stop
         style="stop-color:#d20000;stop-opacity:1"
         offset="0"
         id="stop3424" />
      <stop
         style="stop-color:#800000;stop-opacity:1"
         offset="1"
         id="stop3426" />
    </linearGradient>
    <linearGradient
       inkscape:collect="always"
       xlink:href="#linearGradient3422"
       id="linearGradient3428"
       x1="100.45325"
       y1="377.65036"
       x2="134.57605"
       y2="426.84134"
       gradientUnits="userSpaceOnUse" />
    <linearGradient
       inkscape:collect="always"
       xlink:href="#linearGradient4157"
       id="linearGradient4244"
       gradientUnits="userSpaceOnUse"
       x1="100.45325"
       y1="377.65036"
       x2="134.57605"
       y2="426.84134" />
    <filter
       id="filter4260"
       inkscape:label="Drop shadow"
       width="1.5"
       height="1.5"
       x="-0.25"
       y="-0.25"
       color-interpolation-filters="sRGB">
      <feGaussianBlur
         id="feGaussianBlur4262"
         in="SourceAlpha"
         stdDeviation="2"
         result="blur" />
      <feColorMatrix
         id="feColorMatrix4264"
         result="bluralpha"
         type="matrix"
         values="1 0 0 0 0 0 1 0 0 0 0 0 1 0 0 0 0 0 0.5 0 " />
      <feOffset
         id="feOffset4266"
         in="bluralpha"
         dx="5"
         dy="5"
         result="offsetBlur" />
      <feMerge
         id="feMerge4268">
        <feMergeNode
           id="feMergeNode4270"
           in="offsetBlur" />
        <feMergeNode
           id="feMergeNode4272"
           in="SourceGraphic" />
      </feMerge>
    </filter>
    <linearGradient
       inkscape:collect="always"
       xlink:href="#linearGradient3002"
       id="linearGradient3008"
       x1="97.029953"
       y1="387.47717"
       x2="145.81046"
       y2="437.18448"
       gradientUnits="userSpaceOnUse" />
  </defs>
  <sodipodi:namedview
     id="base"
     pagecolor="#ffffff"
     bordercolor="#666666"
     borderopacity="1.0"
     inkscape:pageopacity="0"
     inkscape:pageshadow="2"
     inkscape:zoom="1.979899"
     inkscape:cx="-132.079"
     inkscape:cy="246.61088"
     inkscape:document-units="px"
     inkscape:current-layer="layer1"
     showgrid="false"
     inkscape:window-width="2560"
     inkscape:window-height="1387"
     inkscape:window-x="0"
     inkscape:window-y="0"
     inkscape:window-maximized="1"
     fit-margin-top="0"
     fit-margin-left="0"
     fit-margin-right="0"
     fit-margin-bottom="0" />
  <metadata
     id="metadata3401">
    <rdf:RDF>
      <cc:Work
         rdf:about="">
        <dc:format>image/svg+xml</dc:format>
        <dc:type
           rdf:resource="http://purl.org/dc/dcmitype/StillImage" />
        <dc:title />
      </cc:Work>
    </rdf:RDF>
  </metadata>
  <g
     inkscape:label="Layer 1"
     inkscape:groupmode="layer"
     id="layer1"
     transform="translate(-44.941351,-316.59114)">
    <g
       id="g4235"
       style="filter:url(#filter4260)"
       transform="translate(4.941343,-2.9139073)">
      <path
         transform="matrix(2.1357804,0,0,2.1357804,-116.29364,-462.26833)"
         d="m 162.14286,407.00504 a 42.142857,37.5 0 0 1 -42.14286,37.5 42.142857,37.5 0 0 1 -42.142857,-37.5 42.142857,37.5 0 0 1 42.142857,-37.5 42.142857,37.5 0 0 1 42.14286,37.5 z"
         sodipodi:ry="37.5"
         sodipodi:rx="42.142857"
         sodipodi:cy="407.00504"
         sodipodi:cx="120"
         id="path3408"
         style="fill:#00112b;fill-opacity:1;stroke:none"
         sodipodi:type="arc" />
      <path
         sodipodi:type="arc"
         style="fill:url(#linearGradient3008);fill-opacity:1;stroke:none"
         id="path3410"
         sodipodi:cx="120"
         sodipodi:cy="407.00504"
         sodipodi:rx="42.142857"
         sodipodi:ry="37.5"
         d="m 162.14286,407.00504 a 42.142857,37.5 0 0 1 -42.14286,37.5 42.142857,37.5 0 0 1 -42.142857,-37.5 42.142857,37.5 0 0 1 42.142857,-37.5 42.142857,37.5 0 0 1 42.14286,37.5 z"
         transform="matrix(2.0117772,0,0,2.0117772,-101.41326,-411.79841)" />
      <path
         transform="matrix(1.8085674,0,0,1.8085674,-77.028083,-329.09099)"
         d="m 162.14286,407.00504 a 42.142857,37.5 0 0 1 -42.14286,37.5 42.142857,37.5 0 0 1 -42.142857,-37.5 42.142857,37.5 0 0 1 42.142857,-37.5 42.142857,37.5 0 0 1 42.14286,37.5 z"
         sodipodi:ry="37.5"
         sodipodi:rx="42.142857"
         sodipodi:cy="407.00504"
         sodipodi:cx="120"
         id="path3412"
         style="fill:url(#linearGradient4244);fill-opacity:1;stroke:none"
         sodipodi:type="arc" />
      <text
         transform="matrix(-0.42245201,0.90638529,-0.90638529,-0.42245201,0,0)"
         sodipodi:linespacing="125%"
         id="text3404"
         y="-267.48068"
         x="259.00107"
         style="font-size:35.56922531px;font-style:normal;font-weight:normal;line-height:125%;letter-spacing:0px;word-spacing:0px;fill:#ffffff;fill-opacity:1;stroke:#003380;stroke-width:3.33403683;font-family:Sans;"
         xml:space="preserve"><tspan
           style="font-size:118.56407928px;fill:#ffffff;stroke:#003380;stroke-width:3.33403683;"
           y="-267.48068"
           x="259.00107"
           id="tspan3406"
           sodipodi:role="line">;}</tspan></text>
      <path
         sodipodi:nodetypes="ccscsccccccccscccscc"
         inkscape:connector-curvature="0"
         id="path4222"
         d="m 174.48146,405.55733 -3.20996,0.75127 c 1.25514,5.26787 5.1801,8.26736 9.4933,9.76649 4.20911,1.46294 8.88114,1.7188 12.73742,1.87817 4.55029,1.43094 7.24158,4.65696 8.74203,8.77618 1.51237,4.15194 1.66716,9.19519 0.81957,13.59113 l 0,0.0683 -0.0341,0.10239 c -0.29037,3.70202 -0.66783,7.35833 -1.40009,10.92755 0.69713,1.22831 1.36543,2.53489 3.20997,0.64882 0.76017,-3.70532 1.14033,-7.43519 1.43424,-11.13244 0.005,-0.0684 0.0287,-0.13654 0.0341,-0.20489 l -0.0341,0 c 0.90587,-4.86027 0.82857,-10.32193 -0.92201,-15.12782 -1.77412,-4.8705 -5.34641,-9.09527 -10.99584,-10.82509 l -0.2049,-0.0683 -0.20489,0 c -3.87116,-0.15741 -8.44244,-0.42827 -12.12274,-1.70743 -3.6803,-1.27916 -6.36315,-3.3364 -7.34194,-7.44439 z"
         style="font-size:medium;font-style:normal;font-variant:normal;font-weight:normal;font-stretch:normal;text-indent:0;text-align:start;text-decoration:none;line-height:normal;letter-spacing:normal;word-spacing:normal;text-transform:none;direction:ltr;block-progression:tb;writing-mode:lr-tb;text-anchor:start;baseline-shift:baseline;color:#000000;fill:#ffffff;fill-opacity:1;stroke:#003380;stroke-width:1.09300005;stroke-linecap:round;stroke-linejoin:round;stroke-miterlimit:4;stroke-opacity:1;stroke-dasharray:none;marker:none;visibility:visible;display:inline;overflow:visible;enable-background:accumulate;font-family:Sans;-inkscape-font-specification:Sans" />
      <path
         inkscape:connector-curvature="0"
         id="path4198"
         d="m 173.19911,368.45944 c -11.42271,0 -20.67271,9.25 -20.67271,20.67271 0,11.42272 9.25,20.70752 20.67271,20.70752 11.42272,0 20.70752,-9.2848 20.70752,-20.70752 0,-11.42271 -9.2848,-20.67271 -20.70752,-20.67271 z m 0,10.33636 c 5.71136,0 10.37116,4.625 10.37116,10.33635 0,5.71136 -4.6598,10.37116 -10.37116,10.37116 -5.71135,0 -10.33635,-4.6598 -10.33635,-10.37116 0,-5.71135 4.625,-10.33635 10.33635,-10.33635 z"
         style="fill:#ffffff;fill-opacity:1;stroke:#003380;stroke-width:3.34104395;stroke-linecap:round;stroke-linejoin:round;stroke-miterlimit:4;stroke-opacity:1;stroke-dasharray:none" />
    </g>
  </g>
</svg>
